<?xml version="1.0" encoding="UTF-8" standalone="no"?>
<!DOCTYPE svg PUBLIC "-//W3C//DTD SVG 1.1//EN" "http://www.w3.org/Graphics/SVG/1.1/DTD/svg11.dtd">
<svg width="100%" height="100%" viewBox="0 0 10000 10000" version="1.1" xmlns="http://www.w3.org/2000/svg" xmlns:xlink="http://www.w3.org/1999/xlink" xml:space="preserve" xmlns:serif="http://www.serif.com/" style="fill-rule:evenodd;clip-rule:evenodd;stroke-linejoin:round;stroke-miterlimit:1.41421;">
    <g id="Beams" transform="matrix(36.7404,0,0,36.7404,-1396.14,-691.464)">
        <g transform="matrix(0.635966,0.518069,-1.72212,2.11402,231.096,-171.025)">
            <path d="M139.674,55.419L75.735,121.156L202.757,122.771L139.674,55.419Z" style="fill:rgb(224,203,103);"/>
        </g>
        <g transform="matrix(0.635966,0.518069,-1.72212,2.11402,311.096,-103.025)">
            <path d="M142.297,53.081L64.189,123.127L198.164,118.695L142.297,53.081Z" style="fill:rgb(224,203,103);"/>
        </g>
    </g>
    <g id="Circle" transform="matrix(36.7404,0,0,36.7404,-1396.14,-691.464)">
        <g transform="matrix(1.22105,0,0,1.2,-38.9263,-22.4)">
            <circle cx="110.5" cy="164.5" r="47.5" style="fill:white;"/>
        </g>
        <g transform="matrix(1.22105,0,0,1.2,42.0737,36.6)">
            <circle cx="110.5" cy="164.5" r="47.5" style="fill:white;"/>
        </g>
    </g>
    <g id="Letters" transform="matrix(36.7404,0,0,36.7404,-1396.14,-691.464)">
        <rect x="153" y="203" width="49" height="15"/>
        <g transform="matrix(0.367347,0,0,4.4,112.296,-690.2)">
            <rect x="153" y="203" width="49" height="15"/>
        </g>
        <g transform="matrix(0.367347,0,0,4.4,29.2959,-751.2)">
            <rect x="153" y="203" width="49" height="15"/>
        </g>
        <g transform="matrix(1,0,0,1,-83,-61)">
            <rect x="153" y="203" width="49" height="15"/>
        </g>
    </g>
</svg>
